<svg id="Calque_1" data-name="Calque 1" xmlns="http://www.w3.org/2000/svg" xmlns:xlink="http://www.w3.org/1999/xlink" viewBox="0 0 187.5 59.5"><defs><style>.cls-1{fill:none;}.cls-2{clip-path:url(#clip-path);}.cls-3{fill:#72c5c3;}.cls-4{fill:#9d9d9c;}.cls-5{clip-path:url(#clip-path-2);}.cls-6{clip-path:url(#clip-path-3);}</style><clipPath id="clip-path"><rect class="cls-1" x="190.78" y="624" width="750" height="1339"/></clipPath><clipPath id="clip-path-2"><rect class="cls-1" x="-738.75" y="624" width="750" height="1339"/></clipPath><clipPath id="clip-path-3"><rect class="cls-1" x="-1711.08" y="624" width="750" height="450"/></clipPath><image id="image" width="4272" height="2848" xlink:href="../HUG_WebDia_2_Dossier/Links/IMG_0556 copie.jpg"/></defs><title>LOGO_WEBDIA</title><g class="cls-2"><use transform="translate(-774.42 50.92) scale(0.67)" xlink:href="#image"/></g><path class="cls-3" d="M29.79,59.22A29.44,29.44,0,1,1,59.23,29.78,29.48,29.48,0,0,1,29.79,59.22Zm0-54.89A25.44,25.44,0,1,0,55.23,29.78,25.47,25.47,0,0,0,29.79,4.33Z"/><path class="cls-4" d="M51.76,49.6,46,18.35h5.54L55,42.08l3.27-23.73H64l3.32,23.49L70.7,18.35h5.57L70.22,49.6H64.45L61.13,28.07,57.76,49.6Z"/><path class="cls-4" d="M88.45,50a9.24,9.24,0,0,1-3.94-.78,7.16,7.16,0,0,1-2.66-2A9.93,9.93,0,0,1,80.25,44a21.82,21.82,0,0,1-.84-3.93q-.23-2-.28-4.58-.07-2.05,0-4.1a42,42,0,0,1,.33-4.33,18.2,18.2,0,0,1,.89-3.67A8.86,8.86,0,0,1,82,20.45a7.23,7.23,0,0,1,2.66-1.84,9.83,9.83,0,0,1,3.85-.7,10.85,10.85,0,0,1,3.53.52A6.26,6.26,0,0,1,94.57,20a10.23,10.23,0,0,1,1.68,2.36,11.3,11.3,0,0,1,1,3.14,34,34,0,0,1,.48,3.63q.13,1.78.13,4.1V34H85.38v2.56q0,.9,0,1.87t.09,1.89a8.81,8.81,0,0,0,.27,1.77,7.56,7.56,0,0,0,.54,1.48,2.4,2.4,0,0,0,2.25,1.37,3.11,3.11,0,0,0,1.61-.38,2.25,2.25,0,0,0,.94-1.14,7.06,7.06,0,0,0,.43-1.51,14.3,14.3,0,0,0,.15-1.9V38.67h6.2v1.25q-.22,5-2.47,7.57T88.45,50ZM85.38,30.85h6.2V29a20,20,0,0,0-.15-2.17A10.23,10.23,0,0,0,91,24.94a2.85,2.85,0,0,0-.94-1.42,2.75,2.75,0,0,0-3.16,0A3,3,0,0,0,86,25a11,11,0,0,0-.43,1.89,20.2,20.2,0,0,0-.15,2.22Z"/><path class="cls-4" d="M114.89,50a6.29,6.29,0,0,1-3.37-.9,15,15,0,0,1-2.88-2.37V49.6h-6.25V5.88h6.25V21.45q.88-.93,1.32-1.34a15.91,15.91,0,0,1,1.28-1,5.31,5.31,0,0,1,1.75-.89,7.32,7.32,0,0,1,2-.26,6.7,6.7,0,0,1,2.83.57,7,7,0,0,1,2.05,1.38,6.39,6.39,0,0,1,1.37,2.32,22.55,22.55,0,0,1,.84,2.73,22.43,22.43,0,0,1,.43,3.3q.15,2.08.17,3.36t0,3.53v.42a36.55,36.55,0,0,1-.21,4,24.4,24.4,0,0,1-.76,3.88,14.38,14.38,0,0,1-1.39,3.42,7,7,0,0,1-2.25,2.36A5.75,5.75,0,0,1,114.89,50Zm-1.56-5.13a2.18,2.18,0,0,0,1.67-.73,4.5,4.5,0,0,0,1-2.09,19.55,19.55,0,0,0,.42-2.7q.11-1.34.11-3.12,0-1.32,0-3.49t0-3.27q0-1.1,0-1.92a11.44,11.44,0,0,0-.24-1.72,5.37,5.37,0,0,0-.52-1.49,2.73,2.73,0,0,0-.92-1,2.56,2.56,0,0,0-1.42-.38,9,9,0,0,0-4.69,1.25V43.94A12.47,12.47,0,0,0,113.33,44.92Z"/><path class="cls-4" d="M128.1,49.6V5.85h9.69q6.86,0,9.68,2.81t2.82,9.69V35.54q0,7.2-2.87,10.63t-9.68,3.43Zm6.25-4.69h3.44a10.76,10.76,0,0,0,2.64-.28,3.54,3.54,0,0,0,1.78-1,8.34,8.34,0,0,0,1.07-1.42,5.55,5.55,0,0,0,.55-2.09q.16-1.42.18-2.33t0-2.84v-15q0-1.2,0-1.9T144,16.34a10.82,10.82,0,0,0-.18-1.53q-.12-.56-.34-1.26a3.15,3.15,0,0,0-.55-1.09,8.42,8.42,0,0,0-.81-.82A3.09,3.09,0,0,0,141,11a9.41,9.41,0,0,0-1.45-.34,11.7,11.7,0,0,0-1.86-.13h-3.32Z"/><path class="cls-4" d="M155.76,13.67V7.42H162v6.25Zm0,35.94V18.35H162V49.6Z"/><path class="cls-4" d="M173.44,50A5.5,5.5,0,0,1,169,47.78a7.9,7.9,0,0,1-1.82-5.09,10.68,10.68,0,0,1,.77-4.13,13.17,13.17,0,0,1,1.62-3,10.06,10.06,0,0,1,2.86-2.29,29.44,29.44,0,0,1,3-1.62q1-.44,3.56-1.44l.66-.27V27.73a8.31,8.31,0,0,0-.66-3.67,3,3,0,0,0-4.77-.2,6.37,6.37,0,0,0-.79,3.06q0,.27,0,.81h-6.25a10.28,10.28,0,0,1,2.51-7.15,10.14,10.14,0,0,1,13.73,0,10,10,0,0,1,2.5,7.12V41.79a30.48,30.48,0,0,0,.81,7.81h-6.23l-.83-4.69q-.49,1-.79,1.51a13.94,13.94,0,0,1-.89,1.33A5.63,5.63,0,0,1,176.83,49a5.84,5.84,0,0,1-1.46.74A5.65,5.65,0,0,1,173.44,50Zm3.13-5.13a2.38,2.38,0,0,0,1.28-.39,4.2,4.2,0,0,0,.94-.76q.32-.37.78-1a1,1,0,0,1,.12-.17V34q-.39.27-1.29.83l-1.44.92a15.85,15.85,0,0,0-1.29,1,6.64,6.64,0,0,0-1.17,1.2,6.11,6.11,0,0,0-.73,1.4,4.81,4.81,0,0,0-.32,1.73Q173.44,44.92,176.56,44.92Z"/><g class="cls-5"><use transform="translate(-1791.87 -66.32) scale(0.71)" xlink:href="#image"/></g><g class="cls-6"><use transform="translate(-2554.65 47.07) scale(0.61)" xlink:href="#image"/></g></svg>