<svg id="Calque_1" data-name="Calque 1" xmlns="http://www.w3.org/2000/svg" xmlns:xlink="http://www.w3.org/1999/xlink" viewBox="0 0 62.08 62.02"><defs><style>.cls-1{fill:none;}.cls-2{clip-path:url(#clip-path);}.cls-3{clip-path:url(#clip-path-2);}.cls-4{clip-path:url(#clip-path-3);}.cls-5{fill:#fff;}.cls-6{fill:#008cba;}</style><clipPath id="clip-path"><rect class="cls-1" x="1010.5" y="612.33" width="750" height="1339"/></clipPath><clipPath id="clip-path-2"><rect class="cls-1" x="-371.97" y="612.33" width="750" height="1339"/></clipPath><clipPath id="clip-path-3"><rect class="cls-1" x="-1301.5" y="612.33" width="750" height="1339"/></clipPath><image id="image" width="4272" height="2848" xlink:href="../HUG_WebDia_2_Dossier/Links/IMG_0556 copie.jpg"/></defs><title>ICONE_LOGOUT</title><g class="cls-2"><use transform="translate(45.31 39.25) scale(0.67)" xlink:href="#image"/></g><g class="cls-3"><use transform="translate(-1337.17 39.25) scale(0.67)" xlink:href="#image"/></g><g class="cls-4"><use transform="translate(-2354.62 -77.98) scale(0.71)" xlink:href="#image"/></g><path class="cls-5" d="M31.16,62.08h0a31,31,0,1,1,31-31,31,31,0,0,1-31,31"/><path class="cls-6" d="M38.5,24.8H23.22L26,22.39a1.5,1.5,0,0,0-2-2.28l-5.89,5,0,0-.13.14-.08.09a1.51,1.51,0,0,0-.1.17l0,.09a1.51,1.51,0,0,0-.07.22l0,.07a1.46,1.46,0,0,0,0,.63l0,.08a1.47,1.47,0,0,0,.07.22l.05.09a1.5,1.5,0,0,0,.1.17l.08.09.13.13,0,0,5.89,5a1.5,1.5,0,0,0,2-2.28L23.21,27.8H38.5a4.27,4.27,0,1,1,0,8.54H21a1.5,1.5,0,0,0,0,3H38.5a7.27,7.27,0,1,0,0-14.54Z"/></svg>