<svg id="Calque_1" data-name="Calque 1" xmlns="http://www.w3.org/2000/svg" xmlns:xlink="http://www.w3.org/1999/xlink" viewBox="0 0 37.96 38.13"><defs><style>.cls-1{fill:none;}.cls-2{clip-path:url(#clip-path);}.cls-3{fill:#9d9d9c;}.cls-4{clip-path:url(#clip-path-2);}</style><clipPath id="clip-path"><rect class="cls-1" x="-41.13" y="612.88" width="750" height="1339"/></clipPath><clipPath id="clip-path-2"><rect class="cls-1" x="-1013.45" y="612.88" width="750" height="450"/></clipPath><image id="image" width="4272" height="2848" xlink:href="../HUG_WebDia_2_Dossier/Links/IMG_0556 copie.jpg"/></defs><title>ICONE_Checkbox_off</title><g class="cls-2"><use transform="translate(-1094.25 -77.44) scale(0.71)" xlink:href="#image"/></g><path class="cls-3" d="M19,38a19.61,19.61,0,0,1-2.45-.15A19,19,0,0,1,21.44.21,19.1,19.1,0,0,1,37.8,16.57h0A19,19,0,0,1,19,38ZM19,4.06a14.92,14.92,0,1,0,1.94.12A15.55,15.55,0,0,0,19,4.06Z"/><g class="cls-4"><use transform="translate(-1857.03 35.95) scale(0.61)" xlink:href="#image"/></g></svg>