<svg id="Calque_1" data-name="Calque 1" xmlns="http://www.w3.org/2000/svg" xmlns:xlink="http://www.w3.org/1999/xlink" viewBox="0 0 37.94 37.97"><defs><style>.cls-1{fill:none;}.cls-2{clip-path:url(#clip-path);}.cls-3{fill:#00b1af;}.cls-4{clip-path:url(#clip-path-2);}</style><clipPath id="clip-path"><rect class="cls-1" x="19.42" y="614.45" width="750" height="1339"/></clipPath><clipPath id="clip-path-2"><rect class="cls-1" x="-952.91" y="614.45" width="750" height="450"/></clipPath><image id="image" width="4272" height="2848" xlink:href="../HUG_WebDia_2_Dossier/Links/IMG_0556 copie.jpg"/></defs><title>ICONE_Checkbox_on</title><g class="cls-2"><use transform="translate(-1033.71 -75.86) scale(0.71)" xlink:href="#image"/></g><path class="cls-3" d="M37.79,16.54A19,19,0,0,0,.16,21.45,19.1,19.1,0,0,0,16.52,37.81,19.61,19.61,0,0,0,19,38,19,19,0,0,0,37.79,16.54ZM17,33.84A15,15,0,0,1,19,4a15.54,15.54,0,0,1,1.94.12A15,15,0,0,1,17,33.84Z"/><path class="cls-3" d="M20.48,10.32a9.3,9.3,0,0,0-1.5-.12,8.76,8.76,0,1,0,1.5.12Z"/><g class="cls-4"><use transform="translate(-1796.49 37.53) scale(0.61)" xlink:href="#image"/></g></svg>