<svg id="Calque_1" data-name="Calque 1" xmlns="http://www.w3.org/2000/svg" xmlns:xlink="http://www.w3.org/1999/xlink" viewBox="0 0 72.67 72.41"><defs><style>.cls-1{fill:none;}.cls-2{clip-path:url(#clip-path);}.cls-3{clip-path:url(#clip-path-2);}.cls-4{fill:#fff;}.cls-5{fill:#008cba;}</style><clipPath id="clip-path"><rect class="cls-1" x="-259.14" y="620.16" width="750" height="1339"/></clipPath><clipPath id="clip-path-2"><rect class="cls-1" x="-1188.67" y="620.16" width="750" height="1339"/></clipPath><image id="image" width="4272" height="2848" xlink:href="../HUG_WebDia_2_Dossier/Links/IMG_0556 copie.jpg"/></defs><title>ICONE_CALCULATOR_HOME</title><g class="cls-2"><use transform="translate(-1224.33 47.08) scale(0.67)" xlink:href="#image"/></g><g class="cls-3"><use transform="translate(-2241.79 -70.16) scale(0.71)" xlink:href="#image"/></g><rect class="cls-4" x="0.01" y="41.21" width="31.7" height="31.29" rx="3.73" ry="3.73"/><rect class="cls-4" x="0.01" y="0.04" width="31.7" height="31.29" rx="3.73" ry="3.73"/><rect class="cls-4" x="40.99" y="0.04" width="31.7" height="72.36" rx="3.73" ry="3.73"/><rect class="cls-5" x="48.38" y="38.18" width="17.92" height="5.96" rx="1.03" ry="1.03"/><rect class="cls-5" x="48.38" y="27" width="17.92" height="5.96" rx="1.03" ry="1.03"/><path class="cls-5" d="M23.54,12.84h-5V7.89a1,1,0,0,0-1-1H13.65a1,1,0,0,0-1,1v4.95h-5a1,1,0,0,0-1,1v3.91a1,1,0,0,0,1,1h5v5a1,1,0,0,0,1,1h3.91a1,1,0,0,0,1-1v-5h5a1,1,0,0,0,1-1V13.87A1,1,0,0,0,23.54,12.84Z"/><rect class="cls-5" x="7.39" y="53.82" width="17.92" height="5.96" rx="1.03" ry="1.03"/></svg>