<svg id="Calque_1" data-name="Calque 1" xmlns="http://www.w3.org/2000/svg" xmlns:xlink="http://www.w3.org/1999/xlink" viewBox="0 0 49.17 48.98"><defs><style>.cls-1{fill:none;}.cls-2{clip-path:url(#clip-path);}.cls-3{clip-path:url(#clip-path-2);}.cls-4{fill:#fff;}.cls-5{fill:#008cba;}.cls-6{clip-path:url(#clip-path-3);}</style><clipPath id="clip-path"><rect class="cls-1" x="572.11" y="481.42" width="750" height="1339"/></clipPath><clipPath id="clip-path-2"><rect class="cls-1" x="-357.42" y="481.42" width="750" height="1339"/></clipPath><clipPath id="clip-path-3"><rect class="cls-1" x="-1329.74" y="481.42" width="750" height="450"/></clipPath><image id="image" width="4272" height="2848" xlink:href="../HUG_WebDia_2_Dossier/Links/IMG_0556 copie.jpg"/></defs><title>ICONE_CALCULATOR_ON</title><g class="cls-2"><use transform="translate(-393.08 -91.66) scale(0.67)" xlink:href="#image"/></g><g class="cls-3"><use transform="translate(-1410.54 -208.9) scale(0.71)" xlink:href="#image"/></g><rect class="cls-4" x="0.06" y="27.87" width="21.39" height="21.12" rx="2.51" ry="2.51"/><rect class="cls-4" x="0.06" y="0.09" width="21.39" height="21.12" rx="2.51" ry="2.51"/><rect class="cls-4" x="27.71" y="0.09" width="21.39" height="48.82" rx="2.51" ry="2.51"/><rect class="cls-5" x="32.69" y="25.82" width="12.09" height="4.02" rx="1.03" ry="1.03"/><rect class="cls-5" x="32.69" y="18.28" width="12.09" height="4.02" rx="1.03" ry="1.03"/><path class="cls-5" d="M15.6,8.72h-3v-3a1,1,0,0,0-1-1h-2a1,1,0,0,0-1,1v3h-3a1,1,0,0,0-1,1v2a1,1,0,0,0,1,1h3v3a1,1,0,0,0,1,1h2a1,1,0,0,0,1-1v-3h3a1,1,0,0,0,1-1v-2A1,1,0,0,0,15.6,8.72Z"/><rect class="cls-5" x="5.04" y="36.38" width="12.09" height="4.02" rx="1.03" ry="1.03"/><g class="cls-6"><use transform="translate(-2173.32 -95.51) scale(0.61)" xlink:href="#image"/></g></svg>