<svg id="Calque_1" data-name="Calque 1" xmlns="http://www.w3.org/2000/svg" xmlns:xlink="http://www.w3.org/1999/xlink" viewBox="0 0 68.08 51.17"><defs><style>.cls-1{fill:none;}.cls-2{clip-path:url(#clip-path);}.cls-3{clip-path:url(#clip-path-2);}.cls-4{fill:#fff;}.cls-5{clip-path:url(#clip-path-3);}</style><clipPath id="clip-path"><rect class="cls-1" x="667.45" y="478.42" width="750" height="1339"/></clipPath><clipPath id="clip-path-2"><rect class="cls-1" x="-262.08" y="478.42" width="750" height="1339"/></clipPath><clipPath id="clip-path-3"><rect class="cls-1" x="-1234.41" y="478.42" width="750" height="450"/></clipPath><image id="image" width="4272" height="2848" xlink:href="../HUG_WebDia_2_Dossier/Links/IMG_0556 copie.jpg"/></defs><title>ICONE_ENVOYER_ON</title><g class="cls-2"><use transform="translate(-297.75 -94.66) scale(0.67)" xlink:href="#image"/></g><g class="cls-3"><use transform="translate(-1315.21 -211.9) scale(0.71)" xlink:href="#image"/></g><path class="cls-4" d="M59.07,33.11a9,9,0,0,0-7.5,4L22.05,29.76a11,11,0,0,0-.49-3L38.18,15.91a9.09,9.09,0,1,0-3-5.23l-17,11.12A11,11,0,1,0,20.6,35.59L50.11,43a9,9,0,1,0,9-9.85Z"/><g class="cls-5"><use transform="translate(-2077.99 -98.51) scale(0.61)" xlink:href="#image"/></g></svg>