<?xml version="1.0" standalone="no"?>
<!DOCTYPE svg PUBLIC "-//W3C//DTD SVG 1.1//EN" "http://www.w3.org/Graphics/SVG/1.1/DTD/svg11.dtd" >
<svg xmlns="http://www.w3.org/2000/svg">
<metadata>Generated by IcoMoon</metadata>
<defs>
<font id="icomoon" horiz-adv-x="1024">
<font-face units-per-em="1024" ascent="960" descent="-64" />
<missing-glyph horiz-adv-x="1024" />
<glyph unicode="&#x20;" horiz-adv-x="512" d="" />
<glyph unicode="&#xe900;" glyph-name="ICONE_HOME" horiz-adv-x="1128" d="M1126.482 341.844l-561.812 436.466-562.22-436.466v178.016l562.22 436.466 561.812-436.466zM986.029 357.767v-421.767h-843.126v421.767l421.767 316.427z" />
<glyph unicode="&#xe901;" d="M52.462 374.917h340.024c28.897 0 52.322-23.425 52.322-52.322v-334.273c0-28.897-23.425-52.322-52.322-52.322h-340.024c-28.897 0-52.322 23.425-52.322 52.322v334.273c0 28.897 23.425 52.322 52.322 52.322z" />
<glyph unicode="&#xe902;" d="M52.462 952.425h340.024c28.897 0 52.322-23.425 52.322-52.322v-334.273c0-28.897-23.425-52.322-52.322-52.322h-340.024c-28.897 0-52.322 23.425-52.322 52.322v334.273c0 28.897 23.425 52.322 52.322 52.322z" />
<glyph unicode="&#xe903;" d="M627.305 952.425h340.024c28.897 0 52.322-23.425 52.322-52.322v-910.378c0-28.897-23.425-52.322-52.322-52.322h-340.024c-28.897 0-52.322 23.425-52.322 52.322v910.378c0 28.897 23.425 52.322 52.322 52.322z" />
<glyph unicode="&#xe904;" d="M693.094 417.42h222.475c7.98 0 14.448-6.469 14.448-14.448v-54.707c0-7.98-6.469-14.448-14.448-14.448h-222.475c-7.98 0-14.448 6.469-14.448 14.448v54.707c0 7.98 6.469 14.448 14.448 14.448z" />
<glyph unicode="&#xe905;" d="M693.094 574.247h222.475c7.98 0 14.448-6.469 14.448-14.448v-54.707c0-7.98-6.469-14.448-14.448-14.448h-222.475c-7.98 0-14.448 6.469-14.448 14.448v54.707c0 7.98 6.469 14.448 14.448 14.448z" />
<glyph unicode="&#xe906;" d="M330.205 772.875h-70.137v69.436c0 7.747-6.28 14.027-14.027 14.027v0h-54.567c-7.747 0-14.027-6.28-14.027-14.027v0-69.436h-70.137c-7.747 0-14.027-6.28-14.027-14.027v0-54.847c0-7.747 6.28-14.027 14.027-14.027v0h70.137v-70.137c0-7.747 6.28-14.027 14.027-14.027v0h54.847c7.747 0 14.027 6.28 14.027 14.027v0 70.137h70.137c7.747 0 14.027 6.28 14.027 14.027v0 54.426c0.004 0.126 0.006 0.275 0.006 0.424 0 7.747-6.28 14.027-14.027 14.027-0.101 0-0.202-0.001-0.302-0.003h0.015z" />
<glyph unicode="&#xe907;" d="M118.111 198.032h222.475c7.98 0 14.448-6.469 14.448-14.448v-54.707c0-7.98-6.469-14.448-14.448-14.448h-222.475c-7.98 0-14.448 6.469-14.448 14.448v54.707c0 7.98 6.469 14.448 14.448 14.448z" />
<glyph unicode="&#xe908;" horiz-adv-x="1028" d="M53.73 377.336h342.239c28.981 0 52.475-23.494 52.475-52.475v-336.595c0-28.981-23.494-52.475-52.475-52.475h-342.239c-28.981 0-52.475 23.494-52.475 52.475v336.595c0 28.981 23.494 52.475 52.475 52.475z" />
<glyph unicode="&#xe909;" horiz-adv-x="1028" d="M53.73 958.118h342.239c28.981 0 52.475-23.494 52.475-52.475v-336.595c0-28.981-23.494-52.475-52.475-52.475h-342.239c-28.981 0-52.475 23.494-52.475 52.475v336.595c0 28.981 23.494 52.475 52.475 52.475z" />
<glyph unicode="&#xe90a;" horiz-adv-x="1028" d="M631.794 958.118h342.239c28.981 0 52.475-23.494 52.475-52.475v-915.704c0-28.981-23.494-52.475-52.475-52.475h-342.239c-28.981 0-52.475 23.494-52.475 52.475v915.704c0 28.981 23.494 52.475 52.475 52.475z" />
<glyph unicode="&#xe90b;" horiz-adv-x="1028" d="M704.967 420.194h209.692c11.893 0 21.534-9.641 21.534-21.534v-40.977c0-11.893-9.641-21.534-21.534-21.534h-209.692c-11.893 0-21.534 9.641-21.534 21.534v40.977c0 11.893 9.641 21.534 21.534 21.534z" />
<glyph unicode="&#xe90c;" horiz-adv-x="1028" d="M704.967 577.829h209.692c11.893 0 21.534-9.641 21.534-21.534v-40.977c0-11.893-9.641-21.534-21.534-21.534h-209.692c-11.893 0-21.534 9.641-21.534 21.534v40.977c0 11.893 9.641 21.534 21.534 21.534z" />
<glyph unicode="&#xe90d;" horiz-adv-x="1028" d="M326.141 777.695h-62.719v62.719c0 11.546-9.36 20.906-20.906 20.906v0h-41.813c-11.546 0-20.906-9.36-20.906-20.906v0-62.719h-62.719c-11.546 0-20.906-9.36-20.906-20.906v0-41.813c0-11.546 9.36-20.906 20.906-20.906v0h62.719v-62.719c0-11.546 9.36-20.906 20.906-20.906v0h41.813c11.546 0 20.906 9.36 20.906 20.906v0 62.719h62.719c11.546 0 20.906 9.36 20.906 20.906v0 41.813c0 11.546-9.36 20.906-20.906 20.906v0z" />
<glyph unicode="&#xe90e;" horiz-adv-x="1028" d="M126.902 199.422h209.692c11.893 0 21.534-9.641 21.534-21.534v-40.977c0-11.893-9.641-21.534-21.534-21.534h-209.692c-11.893 0-21.534 9.641-21.534 21.534v40.977c0 11.893 9.641 21.534 21.534 21.534z" />
<glyph unicode="&#xe90f;" horiz-adv-x="1028" d="M53.73 377.336h342.239c28.981 0 52.475-23.494 52.475-52.475v-336.595c0-28.981-23.494-52.475-52.475-52.475h-342.239c-28.981 0-52.475 23.494-52.475 52.475v336.595c0 28.981 23.494 52.475 52.475 52.475z" />
<glyph unicode="&#xe910;" horiz-adv-x="1028" d="M53.73 958.118h342.239c28.981 0 52.475-23.494 52.475-52.475v-336.595c0-28.981-23.494-52.475-52.475-52.475h-342.239c-28.981 0-52.475 23.494-52.475 52.475v336.595c0 28.981 23.494 52.475 52.475 52.475z" />
<glyph unicode="&#xe911;" horiz-adv-x="1028" d="M631.794 958.118h342.239c28.981 0 52.475-23.494 52.475-52.475v-915.704c0-28.981-23.494-52.475-52.475-52.475h-342.239c-28.981 0-52.475 23.494-52.475 52.475v915.704c0 28.981 23.494 52.475 52.475 52.475z" />
<glyph unicode="&#xe912;" horiz-adv-x="1028" d="M704.967 420.194h209.692c11.893 0 21.534-9.641 21.534-21.534v-40.977c0-11.893-9.641-21.534-21.534-21.534h-209.692c-11.893 0-21.534 9.641-21.534 21.534v40.977c0 11.893 9.641 21.534 21.534 21.534z" />
<glyph unicode="&#xe913;" horiz-adv-x="1028" d="M704.967 577.829h209.692c11.893 0 21.534-9.641 21.534-21.534v-40.977c0-11.893-9.641-21.534-21.534-21.534h-209.692c-11.893 0-21.534 9.641-21.534 21.534v40.977c0 11.893 9.641 21.534 21.534 21.534z" />
<glyph unicode="&#xe914;" horiz-adv-x="1028" d="M326.141 777.695h-62.719v62.719c0 11.546-9.36 20.906-20.906 20.906v0h-41.813c-11.546 0-20.906-9.36-20.906-20.906v0-62.719h-62.719c-11.546 0-20.906-9.36-20.906-20.906v0-41.813c0-11.546 9.36-20.906 20.906-20.906v0h62.719v-62.719c0-11.546 9.36-20.906 20.906-20.906v0h41.813c11.546 0 20.906 9.36 20.906 20.906v0 62.719h62.719c11.546 0 20.906 9.36 20.906 20.906v0 41.813c0 11.546-9.36 20.906-20.906 20.906v0z" />
<glyph unicode="&#xe915;" horiz-adv-x="1028" d="M126.902 199.422h209.692c11.893 0 21.534-9.641 21.534-21.534v-40.977c0-11.893-9.641-21.534-21.534-21.534h-209.692c-11.893 0-21.534 9.641-21.534 21.534v40.977c0 11.893 9.641 21.534 21.534 21.534z" />
<glyph unicode="&#xe916;" glyph-name="ICONE_Checkbox_off" horiz-adv-x="1019" d="M510.254-60.509c-0.231 0-0.505-0.001-0.778-0.001-22.918 0-45.495 1.464-67.641 4.303l2.623-0.275c-240.509 44.22-420.336 252.244-420.336 502.269 0 281.806 228.449 510.254 510.254 510.254 14.574 0 29.005-0.611 43.27-1.809l-1.865 0.126c228.671-31.885 407.471-210.684 439.047-436.654l0.309-2.702c2.668-19.6 4.191-42.252 4.191-65.26 0-281.391-227.776-509.581-509.009-510.253h-0.065zM510.254 850.967c-220.704-0.776-399.319-179.87-399.319-400.682 0-221.292 179.392-400.684 400.684-400.684s400.684 179.392 400.684 400.684c0 203.406-151.565 371.411-347.92 397.241l-2.030 0.218c-15.549 2.052-33.528 3.223-51.781 3.223-0.112 0-0.224 0-0.336 0h0.018z" />
<glyph unicode="&#xe917;" glyph-name="ICONE_Checkbox_on" horiz-adv-x="1023" d="M1019.146 513.938c-45.329 240.436-253.7 419.876-503.981 419.876-282.993 0-512.405-229.411-512.405-512.405 0-14.038 0.565-27.945 1.672-41.698l-0.117 1.811c32.019-229.635 211.572-409.188 438.494-440.897l2.713-0.311c19.837-2.953 42.991-4.804 66.517-5.12l0.366-0.004c282.412 0.768 511.054 229.884 511.054 512.403 0 23.392-1.567 46.418-4.603 68.979l0.29-2.634zM458.467 47.381c-196.723 29.677-345.796 197.551-345.796 400.243 0 221.729 178.39 401.793 399.477 404.499l0.256 0.002c0.1 0 0.218 0 0.336 0 18.324 0 36.373-1.176 54.077-3.457l-2.094 0.22c192.387-33.579 336.771-199.336 336.771-398.815 0-223.416-181.114-404.53-404.53-404.53-13.556 0-26.956 0.667-40.17 1.969l1.673-0.133zM552.318 681.683c-12.073 2.059-25.98 3.236-40.162 3.236-0.102 0-0.205 0-0.307 0h0.016c-129.847-0.826-234.789-106.278-234.789-236.241 0-130.475 105.771-236.245 236.245-236.245s236.245 105.771 236.245 236.245c0 116.701-84.618 213.638-195.845 232.805l-1.404 0.2z" />
<glyph unicode="&#xe918;" glyph-name="ICONE_CLOSE-MENU" horiz-adv-x="1018" d="M1019.045 806.14l-145.684 145.684-359.255-359.255-366.935 366.935-145.684-145.684 366.935-366.935-366.935-367.183 145.684-145.684 366.935 367.183 359.255-359.255 145.684 145.436-359.255 359.503 359.255 359.255z" />
<glyph unicode="&#xe919;" glyph-name="ICONE_ENVOYER_OFF" d="M889.525 333.402c-0.074 0-0.163 0-0.251 0-46.783 0-88.029-23.703-112.385-59.756l-0.306-0.48-444.536 110.682c-0.39 16.253-3.059 31.741-7.7 46.35l0.322-1.173 250.278 163.388c23.839-20.661 55.164-33.251 89.429-33.251 75.599 0 136.885 61.285 136.885 136.885s-61.285 136.885-136.885 136.885c-75.599 0-136.885-61.285-136.885-136.885 0-8.795 0.829-17.396 2.414-25.73l-0.135 0.854-256-167.454c-28.759 24.696-66.438 39.731-107.629 39.731-91.484 0-165.647-74.163-165.647-165.647s74.163-165.647 165.647-165.647c61.426 0 115.044 33.435 143.645 83.099l0.426 0.803 444.386-111.586c6.754-69.138 64.58-122.728 134.923-122.728 74.851 0 135.529 60.679 135.529 135.529 0 74.638-60.334 135.184-134.891 135.528h-0.033z" />
<glyph unicode="&#xe91a;" glyph-name="ICONE_ENVOYER_ON" d="M889.525 333.402c-0.074 0-0.163 0-0.251 0-46.783 0-88.029-23.703-112.385-59.756l-0.306-0.48-444.536 110.682c-0.39 16.253-3.059 31.741-7.7 46.35l0.322-1.173 250.278 163.388c23.839-20.661 55.164-33.251 89.429-33.251 75.599 0 136.885 61.285 136.885 136.885s-61.285 136.885-136.885 136.885c-75.599 0-136.885-61.285-136.885-136.885 0-8.795 0.829-17.396 2.414-25.73l-0.135 0.854-256-167.454c-28.759 24.696-66.438 39.731-107.629 39.731-91.484 0-165.647-74.163-165.647-165.647s74.163-165.647 165.647-165.647c61.426 0 115.044 33.435 143.645 83.099l0.426 0.803 444.386-111.586c6.754-69.138 64.58-122.728 134.923-122.728 74.851 0 135.529 60.679 135.529 135.529 0 74.638-60.334 135.184-134.891 135.528h-0.033z" />
<glyph unicode="&#xe91b;" glyph-name="ICONE_FLECHE_BTN_HOME" d="M264.139 955.799l507.011-507.011-507.011-507.011z" />
<glyph unicode="&#xe91c;" glyph-name="ICONE_FLECHE_SELECT" d="M0 704l526.629-526.629 525.897 526.629z" />
<glyph unicode="&#xe91d;" glyph-name="ICONE_LISTE_OFF" d="M10.449 958.955h996.833v-231.758h-996.833zM10.449 562.939h620.669v-231.758h-620.669zM10.449 165.878h808.751v-230.922h-808.751z" />
<glyph unicode="&#xe91e;" glyph-name="ICONE_LISTE_ON" d="M10.449 958.955h996.833v-231.758h-996.833zM10.449 562.939h620.669v-231.758h-620.669zM10.449 165.878h808.751v-230.922h-808.751z" />
<glyph unicode="&#xe91f;" d="M511.835-63.67v0c-282.679 0-511.835 229.156-511.835 511.835s229.156 511.835 511.835 511.835c282.679 0 511.835-229.156 511.835-511.835v0c0-282.679-229.156-511.835-511.835-511.835v0z" />
<glyph unicode="&#xe920;" d="M518.274 464.676c-1.871-0.088-4.065-0.138-6.27-0.138-37.895 0-72.328 14.828-97.811 38.998l0.063-0.059c-24.3 26.37-39.199 61.727-39.199 100.565 0 3.83 0.145 7.626 0.429 11.383l-0.030-0.5c0 94.937 54.486 151.899 146.121 151.899 82.554 0 140.342-62.741 140.342-151.899 0-95.267-52.009-150.248-143.644-150.248z" />
<glyph unicode="&#xe921;" d="M511.835 146.513c-183.27 0-244.36 94.937-246.837 99.065l-1.651 3.302v3.302c0 110.622 57.788 171.712 161.806 171.712h204.734c85.856 0 141.993-67.694 141.993-171.712v-4.128l-2.477-3.302c-1.816-4.128-73.638-98.239-257.569-98.239z" />
<glyph unicode="&#xe922;" horiz-adv-x="1025" d="M514.477-64.991v0c-282.679 0-511.835 229.156-511.835 511.835s229.156 511.835 511.835 511.835c282.679 0 511.835-229.156 511.835-511.835v0c0-282.679-229.156-511.835-511.835-511.835v0z" />
<glyph unicode="&#xe923;" horiz-adv-x="1025" d="M635.666 550.532h-252.285l45.9 39.791c5.239 4.612 8.527 11.333 8.527 18.822 0 13.828-11.21 25.038-25.038 25.038-6.339 0-12.128-2.356-16.538-6.239l0.028 0.024-97.249-82.554-2.146-2.312-1.321-1.486c-0.548-0.793-1.097-1.712-1.586-2.666l-0.065-0.141v-1.486c-0.422-1.002-0.818-2.213-1.121-3.462l-0.035-0.17v-1.156c-0.361-1.563-0.568-3.358-0.568-5.201s0.207-3.638 0.599-5.362l-0.031 0.162v-1.321c0.333-1.415 0.73-2.627 1.215-3.793l-0.059 0.161 0.826-1.486c0.553-1.094 1.102-2.013 1.706-2.891l-0.054 0.084 1.321-1.486 2.146-2.146 97.249-82.554c4.383-3.86 10.172-6.215 16.511-6.215 13.828 0 25.038 11.21 25.038 25.038 0 7.489-3.288 14.21-8.499 18.798l-0.028 0.024-46.891 36.654h252.45c38.937 0 70.501-31.564 70.501-70.501s-31.564-70.501-70.501-70.501v0h-288.939c-13.678 0-24.766-11.088-24.766-24.766s11.088-24.766 24.766-24.766v0h288.939c66.293 0 120.034 53.741 120.034 120.034s-53.741 120.034-120.034 120.034v0z" />
<glyph unicode="&#xe924;" glyph-name="ICONE_MENU" d="M0 245.203h1017.322v-169.85h-1017.322v169.85zM0 826.435h1017.322v-169.85h-1017.322v169.85zM0 535.708h1017.322v-169.85h-1017.322v169.85z" />
<glyph unicode="&#xe925;" glyph-name="ICONE_MON-ALLIMENT_OFF" d="M1028.897 565.537h-406.261l0.223 370.421h-209.252v-370.421h-414.943v-209.030h414.943v-406.261h209.030v406.261h406.261v209.030z" />
<glyph unicode="&#xe926;" glyph-name="ICONE_MON-ALLIMENT_ON" d="M1028.897 565.537h-406.261l0.223 370.421h-209.252v-370.421h-414.943v-209.030h414.943v-406.261h209.030v406.261h406.261v209.030z" />
<glyph unicode="&#xe927;" glyph-name="ICONE_SUPPRIMER" d="M197.738-54.819h632.761l63.206 697.026h-759.172zM640.53 831.117v126.764h-252.116v-126.764h-317.793v-188.91l63.912 62.499h759.172l63.206-62.499v188.91zM577.324 831.117h-126.411v63.206h126.411z" />
<glyph unicode="&#xe928;" glyph-name="ICONE_SYNC_OFF" d="M588.144 531.495h384.919l8.927 423.516-141.785 1.313-4.464-167.778c-84.813 74.077-196.528 119.25-318.793 119.25-268.269 0-485.744-217.475-485.744-485.744s217.475-485.744 485.744-485.744c195.849 0 364.627 115.908 441.478 282.869l1.245 3.018-143.36 65.116c-52.767-114.853-166.807-193.171-299.139-193.171-181.263 0-328.205 146.942-328.205 328.205s146.942 328.205 328.205 328.205c80.539 0 154.303-29.010 211.411-77.15l-0.493 0.405h-138.634z" />
</font>
</defs>
</svg>
