<svg id="Calque_1" data-name="Calque 1" xmlns="http://www.w3.org/2000/svg" xmlns:xlink="http://www.w3.org/1999/xlink" viewBox="0 0 62 62.02"><defs><style>.cls-1{fill:none;}.cls-2{clip-path:url(#clip-path);}.cls-3{clip-path:url(#clip-path-2);}.cls-4{fill:#fff;}.cls-5{fill:#008cba;}</style><clipPath id="clip-path"><rect class="cls-1" x="-42.47" y="625" width="750" height="1339"/></clipPath><clipPath id="clip-path-2"><rect class="cls-1" x="-972" y="625" width="750" height="1339"/></clipPath><image id="image" width="4272" height="2848" xlink:href="../HUG_WebDia_2_Dossier/Links/IMG_0556 copie.jpg"/></defs><title>ICONE_LOGIN</title><g class="cls-2"><use transform="translate(-1007.67 51.92) scale(0.67)" xlink:href="#image"/></g><g class="cls-3"><use transform="translate(-2025.12 -65.32) scale(0.71)" xlink:href="#image"/></g><path class="cls-4" d="M31,62h0A31,31,0,1,1,62,31,31,31,0,0,1,31,62"/><path class="cls-5" d="M31.39,30a8.61,8.61,0,0,1-6.3-2.35,9,9,0,0,1-2.35-6.75c0-5.75,3.3-9.2,8.85-9.2,5,0,8.5,3.8,8.5,9.2C40.09,26.67,36.94,30,31.39,30Z"/><path class="cls-5" d="M31,49.27c-11.1,0-14.8-5.75-14.95-6l-.1-.2v-.2c0-6.7,3.5-10.4,9.8-10.4h12.4c5.2,0,8.6,4.1,8.6,10.4v.25l-.15.2C46.49,43.57,42.14,49.27,31,49.27Zm-14.3-6.4Z"/></svg>